<?xml version="1.0" ?><!DOCTYPE svg  PUBLIC '-//W3C//DTD SVG 1.1//EN'  'http://www.w3.org/Graphics/SVG/1.1/DTD/svg11.dtd'><svg height="141px" style="enable-background:new 0 0 135 141;" version="1.1" viewBox="0 0 135 141" width="135px" xml:space="preserve" xmlns="http://www.w3.org/2000/svg" xmlns:xlink="http://www.w3.org/1999/xlink"><style type="text/css">
<![CDATA[
	.st0{fill:#EF3E42;}
	.st1{fill:#FFFFFF;}
	.st2{fill:none;}
	.st3{fill-rule:evenodd;clip-rule:evenodd;fill:#FFFFFF;}
]]>
</style><defs/><path d="M86,90.6c-10.6,0-20.6-4.1-28.1-11.6c-7.5-7.5-11.6-17.5-11.6-28.1c0-10.6,4.1-20.6,11.6-28.1c7.5-7.5,17.5-11.6,28.1-11.6  c10.6,0,20.6,4.1,28.1,11.6c15.5,15.5,15.5,40.7,0,56.2C106.6,86.5,96.6,90.6,86,90.6L86,90.6z M86,22.8c-7.5,0-14.6,2.9-19.9,8.2  c-11,11-11,28.8,0,39.8C71.4,76.1,78.5,79,86,79c7.5,0,14.6-2.9,19.9-8.2c5.3-5.3,8.2-12.4,8.2-19.9c0-7.5-2.9-14.6-8.2-19.9  C100.6,25.7,93.5,22.8,86,22.8L86,22.8z M69.9,56.2V45.5h32.2v10.7H69.9L69.9,56.2z M18.5,107.4l29.8-29.8c1.5,2.1,3.2,4.1,5,5.9  c1.8,1.8,3.8,3.5,5.9,5l-29.8,29.8L18.5,107.4L18.5,107.4z"/><rect class="st2" height="141" id="_x3C_Slice_x3E__100_" width="135"/></svg>